<?xml version="1.0" encoding="UTF-8" standalone="no"?>
<svg
        xmlns="http://www.w3.org/2000/svg"
        width="2000"
        height="512"
        viewBox="0 0 2000 512">
    <g
            id="layer1"
            transform="translate(0,448)">
        <g
                transform="matrix(0.99410506,-0.16497099,0.16245933,0.9789699,0,0)"
                style="font-style:normal;font-variant:normal;font-weight:normal;font-stretch:semi-condensed;font-size:201.49667358px;line-height:125%;font-family:'Lucida Console';-inkscape-font-specification:'Lucida Console, Semi-Condensed';text-align:start;letter-spacing:0px;word-spacing:0px;writing-mode:lr-tb;text-anchor:start;display:inline;opacity:1;fill:#333333;fill-opacity:1;stroke:none;stroke-width:1px;stroke-linecap:butt;stroke-linejoin:miter;stroke-opacity:1"
                id="text3384">
            <path
                    d="m 215.33834,-207.9816 0,16.82419 q -21.34999,-8.26452 -37.9774,-8.26452 -26.26934,0 -26.26934,17.70967 0,7.18226 4.91935,11.60967 4.91935,4.32903 18.2016,8.95322 l 12.39677,4.32903 11.80645,4.03387 q 27.44998,9.64193 27.44998,32.6645 0,17.5129 -14.06934,28.040312 -13.97096,10.429027 -37.48547,10.429027 -16.33225,0 -42.20804,-6.98548 l 0,-19.185479 q 25.7774,11.609676 42.79836,11.609676 14.36451,0 22.92419,-5.608066 8.55967,-5.70644 8.55967,-15.24999 0,-7.28064 -5.11613,-11.51128 -5.01774,-4.23065 -20.85805,-10.03548 l -12.98709,-4.72258 q -19.38225,-7.18225 -26.95805,-14.75806 -7.47742,-7.5758 -7.47742,-20.16934 0,-17.02096 11.51129,-26.36773 11.60967,-9.34677 32.56611,-9.34677 17.02096,0 38.27256,6.00161 z"
                    style=""
                    id="path4147"/>
            <path
                    d="m 252.1351,-84.702629 0,-126.624131 18.29999,0 57.94997,91.79512 0.19677,0 0,-91.40157 15.84032,0 0,126.230581 -17.90644,0 -58.34352,-92.483821 -0.29516,0 0,92.483821 -15.74193,0 z"
                    style=""
                    id="path4149"/>
            <path
                    d="m 381.02213,-84.702629 0,-126.230581 19.38225,0 0,111.669298 67.98545,0 0,14.561283 -87.3677,0 z"
                    style=""
                    id="path4151"/>
        </g>
        <path
                style="display:inline;opacity:1;fill:#666666;fill-rule:evenodd;stroke:#666666;stroke-width:2.27881145px;stroke-linecap:butt;stroke-linejoin:miter;stroke-opacity:1"
                d="M 99.023412,-129.90958 82.30098,-230.67792 c 0,0 -0.49899,-6.01463 1.76245,-9.14815 2.249024,-3.11623 7.768925,-4.1357 7.768925,-4.1357 l 349.784595,-58.04649 3.715,22.38637 56.58111,-78.39818 -75.19345,-33.75864 3.78067,22.7821 -361.357898,59.96707 c 0,0 -34.269995,6.44094 -47.655402,24.98714 -13.4425619,18.62539 -8.750936,53.5229 -8.750936,53.5229 l 29.668921,178.783095 56.581107,-78.398185"
                id="path3438"/>
        <path
                style="display:inline;opacity:1;fill:#1a1a1a;stroke:#333333;stroke-width:0.40284082;stroke-opacity:1"
                d="m 84.243089,-8.827212 -38.682176,-17.417002 29.266913,-40.55433 29.266914,-40.554326 2.07653,11.858823 2.07654,11.858803 175.47259,-29.224436 c 163.67281,-27.2592 175.59621,-29.29122 177.31124,-30.21795 2.39837,-1.29603 3.63891,-2.99803 4.29594,-5.894 l 0.53353,-2.35177 -8.44694,-51.5627 c -5.28182,-32.24452 -8.30482,-51.58628 -8.06756,-51.62566 0.20855,-0.0346 0.25678,-0.2713 0.10731,-0.5261 -0.15162,-0.25825 12.48812,-18.14153 28.57076,-40.42282 l 28.843,-39.95969 15.30353,92.2181 c 13.28814,80.07353 15.33008,92.87046 15.50305,97.17225 0.69643,17.29504 -1.69144,31.60335 -6.9327,41.54072 -6.25983,11.868658 -18.89703,20.243134 -41.44194,27.462962 -3.94243,1.262553 -20.21619,4.032019 -186.97695,31.819571 l -182.65868,30.436792 1.93643,11.6688283 c 1.06504,6.4178531 1.79879,11.6738177 1.6307,11.6799007 -0.1683,0.0048 -17.71269,-7.8265972 -38.987907,-17.405946 z"
                id="path4308"/>
        <g
                style="font-style:normal;font-variant:normal;font-weight:normal;font-stretch:semi-condensed;font-size:250px;line-height:125%;font-family:'Lucida Console';-inkscape-font-specification:'Lucida Console, Semi-Condensed';text-align:start;letter-spacing:-9px;word-spacing:0px;writing-mode:lr-tb;text-anchor:start;fill:#333333;fill-opacity:1;stroke:none;stroke-width:1px;stroke-linecap:butt;stroke-linejoin:miter;stroke-opacity:1"
                id="text4350">
            <path
                    d="m 588.00391,-123.875 0,-157.10449 22.70507,0 71.89942,113.8916 0.24414,0 0,-113.40332 19.65332,0 0,156.61621 -22.2168,0 -72.38769,-114.74609 -0.36621,0 0,114.74609 -19.53125,0 z"
                    style=""
                    id="path4154"/>
            <path
                    d="m 738.18359,-123.875 0,-156.61621 105.83496,0 0,18.06641 -81.7871,0 0,47.48535 69.33593,0 0,18.0664 -69.33593,0 0,54.93164 87.40234,0 0,18.06641 -111.4502,0 z"
                    style=""
                    id="path4156"/>
            <path
                    d="m 916.92773,-123.875 0,-138.5498 -60.18066,0 0,-18.06641 144.53123,0 0,18.06641 -60.18064,0 0,138.5498 -24.16993,0 z"
                    style=""
                    id="path4158"/>
            <path
                    d="m 1020.8428,-123.875 -23.31546,-156.61621 20.50786,0 19.0429,130.12695 0.3662,0 22.583,-97.0459 23.1934,0 22.2168,95.58106 0.2441,0 20.1416,-128.66211 18.3106,0 -25.7568,156.61621 -26.1231,0 -21.6064,-91.91895 -0.2442,0 -21.7285,91.91895 -27.832,0 z"
                    style=""
                    id="path4160"/>
            <path
                    d="m 1145.0215,-202.24414 q 0,-37.47559 18.3105,-59.69238 18.4326,-22.33887 49.4385,-22.33887 31.0059,0 49.3164,22.33887 18.4326,22.21679 18.4326,59.69238 0,37.59766 -18.4326,59.93652 -18.3105,22.2168 -49.3164,22.2168 -31.0059,0 -49.4385,-22.2168 -18.3105,-22.33886 -18.3105,-59.93652 z m 25.6348,0 q 0,30.76172 10.8642,47.48535 10.9863,16.60156 31.25,16.60156 20.2637,0 31.25,-16.60156 10.9863,-16.72363 10.9863,-47.48535 0,-30.63965 -10.9863,-47.24121 -10.9863,-16.72363 -31.25,-16.72363 -20.2637,0 -31.25,16.72363 -10.8642,16.60156 -10.8642,47.24121 z"
                    style=""
                    id="path4162"/>
            <path
                    d="m 1301.793,-123.875 0,-156.61621 43.8232,0 q 27.3438,0 37.9639,4.5166 22.7051,9.39941 22.7051,33.20313 0,16.35742 -8.1788,27.34375 -8.1787,10.86425 -27.3437,20.26367 l 55.4199,71.28906 -29.1748,0 -49.4385,-65.18555 -21.7285,0 0,65.18555 -24.0478,0 z m 24.0478,-83.37402 12.6953,0 q 19.4092,0 30.7618,-8.54493 11.3525,-8.54492 11.3525,-23.07128 0,-13.54981 -8.5449,-18.55469 -8.545,-5.00488 -31.4942,-5.00488 l -14.7705,0 0,55.17578 z"
                    style=""
                    id="path4164"/>
            <path
                    d="m 1441.9629,-123.875 0,-156.61621 24.0478,0 0,76.78223 65.5518,-76.78223 24.292,0 -63.2324,73.85254 75.3174,82.76367 -28.8086,0 -73.1202,-79.83398 0,79.83398 -24.0478,0 z"
                    style=""
                    id="path4166"/>
            <path
                    d="m 1584.208,-123.875 0,-18.06641 42.1143,0 0,-120.48339 -42.1143,0 0,-18.06641 108.3984,0 0,18.06641 -42.1142,0 0,120.48339 42.1142,0 0,18.06641 -108.3984,0 z"
                    style=""
                    id="path4168"/>
            <path
                    d="m 1723.0352,-123.875 0,-157.10449 22.705,0 71.8994,113.8916 0.2442,0 0,-113.40332 19.6533,0 0,156.61621 -22.2168,0 -72.3877,-114.74609 -0.3662,0 0,114.74609 -19.5312,0 z"
                    style=""
                    id="path4170"/>
            <path
                    d="m 1982.7119,-277.19531 0,22.09472 q -24.1699,-11.10839 -45.166,-11.10839 -24.292,0 -40.0391,17.82226 -15.625,17.82227 -15.625,45.41016 0,27.70996 17.7002,45.53222 17.7002,17.7002 45.166,17.7002 6.2256,0 15.8692,-1.46484 l 0,-41.38184 -29.419,0 0,-18.06641 53.4668,0 0,72.75391 q -24.5361,7.8125 -46.5087,7.8125 -36.377,0 -59.2042,-22.58301 -22.705,-22.58301 -22.705,-58.71582 0,-36.9873 22.705,-59.93652 22.7051,-22.94922 59.3262,-22.94922 20.752,0 44.4336,7.08008 z"
                    style=""
                    id="path4172"/>
        </g>
        <g
                style="font-style:normal;font-variant:normal;font-weight:normal;font-stretch:semi-condensed;font-size:112.5px;line-height:125%;font-family:'Lucida Console';-inkscape-font-specification:'Lucida Console, Semi-Condensed';text-align:start;letter-spacing:-2px;word-spacing:0px;writing-mode:lr-tb;text-anchor:start;fill:#666666;fill-opacity:1;stroke:none;stroke-width:1px;stroke-linecap:butt;stroke-linejoin:miter;stroke-opacity:1"
                id="text4354">
            <path
                    d="m 634.48096,-377.82935 0,9.39331 q -11.92017,-4.61425 -21.20362,-4.61425 -14.66674,0 -14.66674,9.88769 0,4.01001 2.74658,6.48194 2.74658,2.41699 10.16235,4.99878 l 6.92139,2.41699 6.59179,2.25219 q 15.32593,5.38331 15.32593,18.23731 0,9.77783 -7.85522,15.65552 -7.8003,5.82275 -20.92896,5.82275 -9.11865,0 -23.56567,-3.90015 l 0,-10.71167 q 14.39209,6.48194 23.89526,6.48194 8.02002,0 12.79907,-3.13111 4.77906,-3.18603 4.77906,-8.5144 0,-4.06494 -2.85645,-6.427 -2.80151,-2.36206 -11.64551,-5.60303 l -7.25097,-2.63672 q -10.82154,-4.01001 -15.05127,-8.23974 -4.17481,-4.22974 -4.17481,-11.26099 0,-9.50317 6.42701,-14.72168 6.48193,-5.21851 18.18237,-5.21851 9.50317,0 21.36841,3.35083 z"
                    style=""
                    id="path4175"/>
            <path
                    d="m 654.39868,-309 0,-8.12988 18.95142,0 0,-54.21753 -18.95142,0 0,-8.12988 48.7793,0 0,8.12988 -18.95142,0 0,54.21753 18.95142,0 0,8.12988 -48.7793,0 z"
                    style=""
                    id="path4177"/>
            <path
                    d="m 715.95459,-309 0,-70.47729 13.0188,0 15.49072,43.39599 0.10986,0 15.21607,-43.39599 13.56811,0 0,70.47729 -8.84399,0 0,-60.47974 -0.10986,0 -15.87525,45.59327 -9.11865,0 -15.82031,-44.32984 -0.10987,0 0,59.21631 -7.52563,0 z"
                    style=""
                    id="path4179"/>
            <path
                    d="m 789.21094,-309 0,-70.47729 22.90649,0 q 12.24976,0 17.46826,2.19726 10.65674,4.61426 10.65674,17.79785 0,11.09619 -8.62427,17.41333 -8.56933,6.31714 -23.67553,6.31714 l -7.91016,0 0,26.75171 -10.82153,0 z m 10.82153,-34.88159 6.75659,0 q 21.97266,0 21.97266,-15.38086 0,-6.48193 -4.17481,-9.28345 -4.11987,-2.80151 -13.78784,-2.80151 l -10.7666,0 0,27.46582 z"
                    style=""
                    id="path4181"/>
            <path
                    d="m 854.77686,-309 0,-70.47729 10.82153,0 0,62.34741 37.95776,0 0,8.12988 -48.77929,0 z"
                    style=""
                    id="path4183"/>
            <path
                    d="m 917.98071,-309 0,-8.12988 18.95142,0 0,-54.21753 -18.95142,0 0,-8.12988 48.7793,0 0,8.12988 -18.95142,0 0,54.21753 18.95142,0 0,8.12988 -48.7793,0 z"
                    style=""
                    id="path4185"/>
            <path
                    d="m 987.94116,-309 0,-70.47729 50.15264,0 0,8.12988 -39.3311,0 0,24.27978 33.5632,0 0,8.12989 -33.5632,0 0,29.93774 -10.82154,0 z"
                    style=""
                    id="path4187"/>
            <path
                    d="m 1049.7717,-309 0,-8.12988 18.9514,0 0,-54.21753 -18.9514,0 0,-8.12988 48.7793,0 0,8.12988 -18.9514,0 0,54.21753 18.9514,0 0,8.12988 -48.7793,0 z"
                    style=""
                    id="path4189"/>
            <path
                    d="m 1118.0293,-309 0,-70.47729 47.6257,0 0,8.12988 -36.8042,0 0,21.36841 31.2012,0 0,8.12988 -31.2012,0 0,24.71924 39.3311,0 0,8.12988 -50.1526,0 z"
                    style=""
                    id="path4191"/>
            <path
                    d="m 1179.2007,-309 0,-70.47729 21.2585,0 q 35.1563,0 35.1563,33.83789 0,15.65551 -7.6355,25.32348 -4.7791,6.09741 -11.8103,8.73413 Q 1209.1934,-309 1197.5479,-309 l -18.3472,0 z m 10.8215,-8.12988 5.4382,0 q 15.4908,0 22.0276,-6.15235 6.5918,-6.15234 6.5918,-20.65429 0,-14.72168 -5.9326,-21.03882 -5.9326,-6.37207 -19.7754,-6.37207 l -8.3496,0 0,54.21753 z"
                    style=""
                    id="path4193"/>
        </g>
        <g
                style="font-style:normal;font-variant:normal;font-weight:normal;font-stretch:semi-condensed;font-size:112.5px;line-height:125%;font-family:'Lucida Console';-inkscape-font-specification:'Lucida Console, Semi-Condensed';text-align:start;letter-spacing:-2px;word-spacing:0px;writing-mode:lr-tb;text-anchor:start;fill:#666666;fill-opacity:1;stroke:none;stroke-width:1px;stroke-linecap:butt;stroke-linejoin:miter;stroke-opacity:1"
                id="text4354-5">
            <path
                    d="m 587.98492,-27.496187 0,-70.477295 10.82154,0 0,62.347412 37.95776,0 0,8.129883 -48.7793,0 z"
                    style=""
                    id="path4196"/>
            <path
                    d="m 651.18878,-27.496187 0,-8.129883 18.95142,0 0,-54.217529 -18.95142,0 0,-8.129883 48.7793,0 0,8.129883 -18.95142,0 0,54.217529 18.95142,0 0,8.129883 -48.7793,0 z"
                    style=""
                    id="path4198"/>
            <path
                    d="m 717.74347,-27.496187 0,-70.477295 22.7417,0 q 24.71924,0 24.71924,16.369629 0,6.262207 -4.28467,10.821533 -4.22974,4.504395 -11.86524,6.427002 19.6106,4.01001 19.6106,18.621826 0,8.349609 -5.76782,13.073731 -3.73535,3.131103 -8.51441,4.174804 -4.77905,0.98877 -15.38086,0.98877 l -21.25854,0 z m 10.82153,-39.990235 3.79029,0 q 21.86279,0 21.86279,-12.194824 0,-5.987549 -4.22974,-8.074951 -4.22973,-2.087402 -16.36963,-2.087402 l -5.05371,0 0,22.357177 z m 0,31.860352 9.77783,0 q 10.71167,0 14.72168,-2.197266 4.06495,-2.197265 4.06495,-8.074951 0,-6.811523 -6.64673,-10.821533 -6.5918,-4.01001 -17.96265,-4.01001 l -3.95508,0 0,25.10376 z"
                    style=""
                    id="path4200"/>
            <path
                    d="m 783.58405,-27.496187 0,-70.477295 19.72045,0 q 12.30469,0 17.08374,2.032471 10.21729,4.229736 10.21729,14.941406 0,7.36084 -3.68042,12.304687 -3.68042,4.888916 -12.30469,9.118653 l 24.93897,32.080078 -13.12866,0 -22.24732,-29.333496 -9.77783,0 0,29.333496 -10.82153,0 z m 10.82153,-37.518311 5.71289,0 q 8.73413,0 13.84277,-3.845215 5.10865,-3.845214 5.10865,-10.38208 0,-6.097412 -3.84522,-8.349609 -3.84521,-2.252197 -14.17236,-2.252197 l -6.64673,0 0,24.829101 z"
                    style=""
                    id="path4202"/>
            <path
                    d="m 840.03131,-27.496187 27.79541,-70.477295 10.82153,0 27.79541,70.477295 -11.48071,0 -6.64673,-17.633057 -32.18994,0 -6.75659,17.633057 -9.33838,0 z m 19.33594,-25.76294 25.70801,0 -12.90894,-33.673095 -12.79907,33.673095 z"
                    style=""
                    id="path4204"/>
            <path
                    d="m 915.37506,-27.496187 0,-70.477295 19.72046,0 q 12.30469,0 17.08374,2.032471 10.21729,4.229736 10.21729,14.941406 0,7.36084 -3.68042,12.304687 -3.68042,4.888916 -12.30469,9.118653 l 24.93896,32.080078 -13.12866,0 -22.24731,-29.333496 -9.77784,0 0,29.333496 -10.82153,0 z m 10.82153,-37.518311 5.71289,0 q 8.73414,0 13.84278,-3.845215 5.10864,-3.845214 5.10864,-10.38208 0,-6.097412 -3.84521,-8.349609 -3.84522,-2.252197 -14.17237,-2.252197 l -6.64673,0 0,24.829101 z"
                    style=""
                    id="path4206"/>
            <path
                    d="m 999.67267,-27.496187 0,-28.839112 -26.75171,-41.638183 12.46948,0 20.48946,32.519531 22.4122,-32.519531 10.2722,0 -28.0701,41.638183 0,28.839112 -10.82153,0 z"
                    style=""
                    id="path4208"/>
        </g>
        <path
                style="opacity:1;fill:#4d4d4d;fill-opacity:1;stroke:#4d4d4d;stroke-width:0.58559698;stroke-opacity:1"
                d="m 588.29279,-295.20721 1396.03941,0 0,3.4144 -1396.03941,0 z"
                id="rect4383"/>
        <path
                style="opacity:1;fill:#4d4d4d;fill-opacity:1;stroke:#4d4d4d;stroke-width:0.58559698;stroke-opacity:1"
                d="m 588.29279,-113.17596 1396.03941,0 0,3.41441 -1396.03941,0 z"
                id="rect4383-6"/>
    </g>
</svg>
